<?xml version="1.0" encoding="UTF-8" standalone="no"?><!DOCTYPE svg PUBLIC "-//W3C//DTD SVG 1.1//EN" "http://www.w3.org/Graphics/SVG/1.1/DTD/svg11.dtd"><svg width="100%" height="100%" viewBox="0 0 417 417" version="1.1" xmlns="http://www.w3.org/2000/svg" xmlns:xlink="http://www.w3.org/1999/xlink" xml:space="preserve" xmlns:serif="http://www.serif.com/" style="fill-rule:evenodd;clip-rule:evenodd;stroke-linejoin:round;stroke-miterlimit:1.41421;"><path d="M395.833,34.414c0,-7.495 -6.085,-13.581 -13.581,-13.581l-347.838,0c-7.495,0 -13.581,6.086 -13.581,13.581l0,347.838c0,7.496 6.086,13.581 13.581,13.581l347.838,0c7.496,0 13.581,-6.085 13.581,-13.581l0,-347.838Z" style="fill:#3ca172;"/><g><rect x="104.167" y="104.167" width="208.333" height="208.333" style="fill:none;fill-rule:nonzero;"/><g><path d="M264.583,104.167c-1.15,0 -2.083,0.932 -2.083,2.083c0,1.151 0.933,2.083 2.083,2.083c1.151,0 2.084,-0.932 2.084,-2.083c0,-1.151 -0.933,-2.083 -2.084,-2.083Z" style="fill:#f1bc19;fill-rule:nonzero;"/><path d="M208.333,106.25c-42.572,0 -77.083,34.511 -77.083,77.083c0,42.572 34.511,77.084 77.083,77.084c42.572,0 77.084,-34.512 77.084,-77.084c0,-42.572 -34.512,-77.083 -77.084,-77.083Z" style="fill:#3cba72;fill-rule:nonzero;"/><path d="M277.083,102.083c-4.602,0 -8.333,3.731 -8.333,8.334c0,4.602 3.731,8.333 8.333,8.333c4.603,0 8.334,-3.731 8.334,-8.333c0,-4.603 -3.731,-8.334 -8.334,-8.334Z" style="fill:#f1bc19;fill-rule:nonzero;"/><path d="M285.417,125c-2.302,0 -4.167,1.865 -4.167,4.167c0,2.301 1.865,4.166 4.167,4.166c2.301,0 4.166,-1.865 4.166,-4.166c0,-2.302 -1.865,-4.167 -4.166,-4.167Z" style="fill:#88ae45;fill-rule:nonzero;"/><path d="M272.917,233.333c-2.302,0 -4.167,1.866 -4.167,4.167c0,2.301 1.865,4.167 4.167,4.167c2.301,0 4.166,-1.866 4.166,-4.167c0,-2.301 -1.865,-4.167 -4.166,-4.167Zm-137.5,-31.25c-4.603,0 -8.334,3.731 -8.334,8.334c0,4.602 3.731,8.333 8.334,8.333c4.602,0 8.333,-3.731 8.333,-8.333c0,-4.603 -3.731,-8.334 -8.333,-8.334Z" style="fill:#fbcd59;fill-rule:nonzero;"/><path d="M156.25,256.25c-2.301,0 -4.167,1.865 -4.167,4.167c0,2.301 1.866,4.166 4.167,4.166c2.301,0 4.167,-1.865 4.167,-4.166c0,-2.302 -1.866,-4.167 -4.167,-4.167Z" style="fill:#88ae45;fill-rule:nonzero;"/><path d="M142.708,181.25c-2.876,0 -5.208,2.332 -5.208,5.208c0,2.877 2.332,5.209 5.208,5.209c2.877,0 5.209,-2.332 5.209,-5.209c0,-2.876 -2.332,-5.208 -5.209,-5.208Zm127.084,-35.417c-1.726,0 -3.125,1.399 -3.125,3.125c0,1.726 1.399,3.125 3.125,3.125c1.726,0 3.125,-1.399 3.125,-3.125c0,-1.726 -1.399,-3.125 -3.125,-3.125Z" style="fill:#fff;fill-rule:nonzero;"/><g><path d="M226.758,221.377l-57.56,0c-3.985,0 -7.248,-3.275 -7.248,-7.281l0,-67.896c0,-4.142 3.375,-7.533 7.498,-7.533l57.308,0c9.636,0 17.517,7.921 17.517,17.6l0,47.51c0.002,9.679 -7.879,17.6 -17.515,17.6Z" style="fill:#9f8066;fill-rule:nonzero;"/><path d="M226.756,222.917l-57.558,0c-4.842,0 -8.781,-3.959 -8.781,-8.823l0,-67.896c0,-5 4.054,-9.073 9.031,-9.073l57.308,0c10.504,0 19.05,8.588 19.05,19.14l0,47.51c0,10.554 -8.546,19.142 -19.05,19.142Zm-57.308,-82.711c-3.29,0 -5.965,2.688 -5.965,5.994l0,67.896c0,3.164 2.565,5.739 5.713,5.739l57.558,0c8.815,0 15.986,-7.202 15.986,-16.06l0,-47.508c0,-8.854 -7.169,-16.061 -15.986,-16.061l-57.306,0Z" style="fill:#472b29;fill-rule:nonzero;"/><path d="M168.231,182.138c-0.393,0 -0.712,-0.321 -0.712,-0.715l0,-30.167c0,-3.858 3.125,-6.998 6.964,-6.998l50.957,0c0.393,0 0.712,0.321 0.712,0.715c0,0.394 -0.319,0.715 -0.712,0.715l-50.959,0c-3.056,0 -5.539,2.497 -5.539,5.566l0,30.167c0.002,0.396 -0.319,0.717 -0.711,0.717Zm0,14.018c-0.393,0 -0.712,-0.321 -0.712,-0.714l0,-5.609c0,-0.395 0.319,-0.714 0.712,-0.714c0.392,0 0.713,0.321 0.713,0.714l0,5.609c0,0.393 -0.321,0.714 -0.713,0.714Zm56.417,19.625l-49.86,0c-4.009,0 -7.271,-3.337 -7.271,-7.435l0,-10.102c0,-0.396 0.318,-0.715 0.712,-0.715c0.392,0 0.713,0.321 0.713,0.715l0,10.102c0,3.31 2.621,6.004 5.846,6.004l49.86,0c6.967,0 12.637,-5.817 12.637,-12.965l0,-25.57c0,-0.396 0.319,-0.715 0.713,-0.715c0.392,0 0.712,0.321 0.712,0.715l0,25.573c-0.002,7.935 -6.312,14.393 -14.062,14.393Zm13.348,-47.662c-0.394,0 -0.713,-0.321 -0.713,-0.715l0,-5.608c0,-0.396 0.319,-0.715 0.713,-0.715c0.392,0 0.712,0.321 0.712,0.715l0,5.608c0,0.394 -0.318,0.715 -0.712,0.715Zm0,-8.411c-0.394,0 -0.713,-0.32 -0.713,-0.714l0,-2.802c0,-0.396 0.319,-0.715 0.713,-0.715c0.392,0 0.712,0.321 0.712,0.715l0,2.802c0,0.394 -0.318,0.714 -0.712,0.714Z" style="fill:#472b29;fill-rule:nonzero;"/><path d="M250.558,189.833l-29.683,0c-5.162,0 -9.39,-4.245 -9.39,-9.433l0,-0.758c0,-5.188 4.228,-9.434 9.39,-9.434l30.298,0c1.2,0 2.173,0.977 2.173,2.184l0,14.643c-0.002,1.538 -1.254,2.798 -2.788,2.798Z" style="fill:#bd977c;fill-rule:nonzero;"/><path d="M250.556,190.658l-29.681,0c-5.629,0 -10.21,-4.602 -10.21,-10.256l0,-0.76c0,-5.657 4.581,-10.259 10.21,-10.259l30.298,0c1.65,0 2.994,1.348 2.994,3.009l0,14.643c0,1.998 -1.621,3.623 -3.611,3.623Zm-29.681,-19.625c-4.723,0 -8.569,3.863 -8.569,8.609l0,0.76c0,4.746 3.846,8.606 8.569,8.606l29.683,0c1.084,0 1.967,-0.885 1.967,-1.973l0,-14.643c0,-0.748 -0.606,-1.359 -1.35,-1.359l-30.3,0Z" style="fill:#472b29;fill-rule:nonzero;"/><g><path d="M224.044,177.219c-1.541,0 -2.79,1.254 -2.79,2.802c0,1.547 1.249,2.802 2.79,2.802c1.54,0 2.789,-1.255 2.789,-2.802c0,-1.548 -1.249,-2.802 -2.789,-2.802Z" style="fill:#fdfcee;fill-rule:nonzero;"/><path d="M224.044,183.542c-1.931,0 -3.504,-1.579 -3.504,-3.521c0,-1.94 1.573,-3.521 3.504,-3.521c1.931,0 3.504,1.579 3.504,3.521c-0.002,1.942 -1.573,3.521 -3.504,3.521Zm0,-5.609c-1.146,0 -2.077,0.938 -2.077,2.088c0,1.15 0.933,2.087 2.077,2.087c1.144,0 2.077,-0.937 2.077,-2.087c0,-1.15 -0.933,-2.088 -2.077,-2.088Z" style="fill:#472b29;fill-rule:nonzero;"/></g><g opacity="0.38"><path d="M179.783,156.633l9.167,9.213" style="fill:none;fill-rule:nonzero;"/><path d="M188.952,166.56c-0.181,0 -0.362,-0.07 -0.502,-0.21l-9.171,-9.21c-0.277,-0.28 -0.277,-0.732 0,-1.011c0.277,-0.279 0.727,-0.279 1.004,0l9.171,9.211c0.277,0.279 0.277,0.731 0,1.01c-0.137,0.14 -0.319,0.21 -0.502,0.21Z" style="fill:#472b29;fill-rule:nonzero;"/><path d="M184.367,161.238l-4.584,4.608" style="fill:none;fill-rule:nonzero;"/><path d="M179.783,166.56c-0.181,0 -0.362,-0.07 -0.502,-0.21c-0.277,-0.279 -0.277,-0.731 0,-1.01l4.586,-4.605c0.277,-0.279 0.727,-0.279 1.004,0c0.277,0.28 0.277,0.732 0,1.011l-4.586,4.604c-0.139,0.14 -0.32,0.21 -0.502,0.21Z" style="fill:#472b29;fill-rule:nonzero;"/><g><path d="M188.95,156.633l-2.131,2.144" style="fill:none;fill-rule:nonzero;"/><path d="M186.821,159.492c-0.181,0 -0.363,-0.071 -0.502,-0.211c-0.277,-0.279 -0.277,-0.731 0,-1.01l2.133,-2.144c0.277,-0.279 0.727,-0.279 1.004,0c0.277,0.279 0.277,0.731 0,1.011l-2.133,2.143c-0.14,0.14 -0.321,0.211 -0.502,0.211Z" style="fill:#472b29;fill-rule:nonzero;"/></g></g><g opacity="0.38"><path d="M178.467,192.442l9.168,9.212" style="fill:none;fill-rule:nonzero;"/><path d="M187.635,202.369c-0.181,0 -0.362,-0.071 -0.502,-0.211l-9.17,-9.212c-0.278,-0.279 -0.278,-0.731 0,-1.011c0.277,-0.279 0.727,-0.279 1.004,0l9.171,9.213c0.277,0.279 0.277,0.731 0,1.01c-0.14,0.14 -0.321,0.211 -0.503,0.211Z" style="fill:#472b29;fill-rule:nonzero;"/><path d="M183.05,197.048l-4.583,4.606" style="fill:none;fill-rule:nonzero;"/><path d="M178.465,202.369c-0.182,0 -0.363,-0.071 -0.502,-0.211c-0.278,-0.279 -0.278,-0.731 0,-1.01l4.585,-4.606c0.277,-0.279 0.727,-0.279 1.004,0c0.277,0.279 0.277,0.731 0,1.01l-4.585,4.606c-0.14,0.14 -0.321,0.211 -0.502,0.211Z" style="fill:#472b29;fill-rule:nonzero;"/><g><path d="M187.635,192.442l-2.133,2.143" style="fill:none;fill-rule:nonzero;"/><path d="M185.502,195.3c-0.181,0 -0.362,-0.071 -0.502,-0.21c-0.277,-0.277 -0.277,-0.732 0,-1.011l2.133,-2.146c0.277,-0.279 0.727,-0.279 1.005,0c0.277,0.277 0.277,0.732 0,1.011l-2.134,2.146c-0.139,0.139 -0.321,0.21 -0.502,0.21Z" style="fill:#472b29;fill-rule:nonzero;"/></g></g><g opacity="0.38"><path d="M203.492,156.633l9.168,9.213" style="fill:none;fill-rule:nonzero;"/><path d="M212.66,166.56c-0.181,0 -0.362,-0.07 -0.502,-0.21l-9.168,-9.21c-0.277,-0.28 -0.277,-0.732 0,-1.011c0.277,-0.279 0.727,-0.279 1.004,0l9.169,9.211c0.277,0.279 0.277,0.731 0,1.01c-0.138,0.14 -0.321,0.21 -0.503,0.21Z" style="fill:#472b29;fill-rule:nonzero;"/><path d="M208.077,161.238l-4.585,4.608" style="fill:none;fill-rule:nonzero;"/><path d="M203.492,166.56c-0.182,0 -0.363,-0.07 -0.502,-0.21c-0.277,-0.279 -0.277,-0.731 0,-1.01l4.585,-4.605c0.277,-0.279 0.727,-0.279 1.004,0c0.277,0.28 0.277,0.732 0,1.011l-4.585,4.604c-0.138,0.14 -0.319,0.21 -0.502,0.21Z" style="fill:#472b29;fill-rule:nonzero;"/><g><path d="M212.66,156.633l-2.133,2.144" style="fill:none;fill-rule:nonzero;"/><path d="M210.527,159.492c-0.181,0 -0.362,-0.071 -0.502,-0.211c-0.277,-0.279 -0.277,-0.731 0,-1.01l2.133,-2.144c0.277,-0.279 0.727,-0.279 1.005,0c0.277,0.279 0.277,0.731 0,1.011l-2.134,2.143c-0.137,0.14 -0.319,0.211 -0.502,0.211Z" style="fill:#472b29;fill-rule:nonzero;"/></g></g><g opacity="0.38"><path d="M202.175,192.442l9.171,9.212" style="fill:none;fill-rule:nonzero;"/><path d="M211.346,202.369c-0.181,0 -0.363,-0.071 -0.502,-0.211l-9.171,-9.212c-0.277,-0.279 -0.277,-0.731 0,-1.011c0.277,-0.279 0.727,-0.279 1.004,0l9.171,9.213c0.277,0.279 0.277,0.731 0,1.01c-0.14,0.14 -0.321,0.211 -0.502,0.211Z" style="fill:#472b29;fill-rule:nonzero;"/><path d="M206.76,197.048l-4.585,4.606" style="fill:none;fill-rule:nonzero;"/><path d="M202.177,202.369c-0.181,0 -0.362,-0.071 -0.502,-0.211c-0.277,-0.279 -0.277,-0.731 0,-1.01l4.585,-4.606c0.278,-0.279 0.728,-0.279 1.005,0c0.277,0.279 0.277,0.731 0,1.01l-4.586,4.606c-0.139,0.14 -0.321,0.211 -0.502,0.211Z" style="fill:#472b29;fill-rule:nonzero;"/><g><path d="M211.346,192.442l-2.133,2.143" style="fill:none;fill-rule:nonzero;"/><path d="M209.21,195.3c-0.181,0 -0.362,-0.071 -0.502,-0.21c-0.277,-0.28 -0.277,-0.732 0,-1.011l2.136,-2.146c0.277,-0.279 0.727,-0.279 1.004,0c0.277,0.28 0.277,0.732 0,1.011l-2.135,2.146c-0.14,0.139 -0.321,0.21 -0.503,0.21Z" style="fill:#472b29;fill-rule:nonzero;"/></g></g><g><path d="M219.498,130.317l-0.988,-4.411l-52.05,12.059l59.953,-8.294l2.71,8.294l-62.288,0.735" style="fill:#9daa39;fill-rule:nonzero;"/><path d="M166.835,139.415c-0.389,0 -0.706,-0.317 -0.712,-0.707c0,-0.037 0.002,-0.075 0.008,-0.11c-0.187,-0.1 -0.329,-0.281 -0.371,-0.504c-0.068,-0.377 0.169,-0.74 0.54,-0.825l52.05,-12.056c0.185,-0.044 0.381,-0.009 0.54,0.089c0.16,0.102 0.273,0.265 0.316,0.448l0.911,4.073l6.202,-0.86c0.337,-0.04 0.666,0.156 0.773,0.485l2.71,8.294c0.071,0.218 0.036,0.454 -0.096,0.639c-0.133,0.186 -0.343,0.298 -0.571,0.3l-62.287,0.736c-0.006,-0.002 -0.01,-0.002 -0.013,-0.002Zm59.084,-8.952l-53.948,7.462l56.171,-0.662l-2.223,-6.8Zm-7.948,-3.698l-35.915,8.32l36.642,-5.068l-0.727,-3.252Z" style="fill:#472b29;fill-rule:nonzero;"/></g></g><g><path d="M222.077,209.215c-8.14,0 -14.739,6.556 -14.739,14.643c0,8.088 6.599,14.644 14.739,14.644c8.141,0 14.74,-6.556 14.74,-14.644c0,-8.087 -6.599,-14.643 -14.74,-14.643Z" style="fill:#fbcd59;fill-rule:nonzero;"/><path d="M222.075,239.583c-8.727,0 -15.825,-7.054 -15.825,-15.725c0,-8.671 7.1,-15.723 15.825,-15.723c8.725,0 15.827,7.055 15.827,15.723c0,8.669 -7.1,15.725 -15.827,15.725Zm0,-29.291c-7.529,0 -13.654,6.085 -13.654,13.566c0,7.484 6.125,13.569 13.654,13.569c7.531,0 13.656,-6.085 13.656,-13.569c0,-7.481 -6.125,-13.566 -13.656,-13.566Z" style="fill:#472b29;fill-rule:nonzero;"/><path d="M222.077,214.281c-5.324,0 -9.639,4.288 -9.639,9.577c0,5.29 4.315,9.577 9.639,9.577c5.324,0 9.64,-4.287 9.64,-9.577c0,-5.289 -4.316,-9.577 -9.64,-9.577Z" style="fill:#f1bc19;fill-rule:nonzero;"/><path d="M222.075,233.975c-5.612,0 -10.179,-4.537 -10.179,-10.115c0,-5.577 4.567,-10.114 10.179,-10.114c5.613,0 10.179,4.537 10.179,10.114c0,5.578 -4.566,10.115 -10.179,10.115Zm0,-19.152c-5.017,0 -9.094,4.054 -9.094,9.035c0,4.982 4.082,9.036 9.094,9.036c5.015,0 9.094,-4.054 9.094,-9.036c0,-4.981 -4.077,-9.035 -9.094,-9.035Z" style="fill:#472b29;fill-rule:nonzero;"/><g><path d="M246.675,196.915c-8.14,0 -14.74,6.556 -14.74,14.643c0,8.088 6.6,14.644 14.74,14.644c8.14,0 14.74,-6.556 14.74,-14.644c0,-8.087 -6.6,-14.643 -14.74,-14.643Z" style="fill:#fbcd59;fill-rule:nonzero;"/><path d="M246.673,227.281c-8.727,0 -15.825,-7.054 -15.825,-15.723c0,-8.668 7.1,-15.725 15.825,-15.725c8.725,0 15.827,7.055 15.827,15.725c0,8.671 -7.1,15.723 -15.827,15.723Zm0,-29.291c-7.529,0 -13.654,6.085 -13.654,13.568c0,7.482 6.125,13.567 13.654,13.567c7.531,0 13.656,-6.085 13.656,-13.567c0,-7.483 -6.125,-13.568 -13.656,-13.568Z" style="fill:#472b29;fill-rule:nonzero;"/></g><g><path d="M246.675,201.981c-5.324,0 -9.64,4.288 -9.64,9.577c0,5.29 4.316,9.577 9.64,9.577c5.324,0 9.64,-4.287 9.64,-9.577c0,-5.289 -4.316,-9.577 -9.64,-9.577Z" style="fill:#f1bc19;fill-rule:nonzero;"/><path d="M246.673,221.673c-5.613,0 -10.179,-4.538 -10.179,-10.115c0,-5.577 4.566,-10.114 10.179,-10.114c5.612,0 10.179,4.537 10.179,10.114c0,5.577 -4.567,10.115 -10.179,10.115Zm0,-19.15c-5.017,0 -9.094,4.054 -9.094,9.035c0,4.982 4.081,9.036 9.094,9.036c5.015,0 9.094,-4.054 9.094,-9.036c0,-4.981 -4.077,-9.035 -9.094,-9.035Z" style="fill:#472b29;fill-rule:nonzero;"/></g><path d="M245.2,214.117c0.013,0 0.04,0.012 0.081,0.039l-0.018,-0.01c0.193,0.131 0.366,0.237 0.518,0.312c0.154,0.075 0.317,0.13 0.488,0.165l0,-3.083l-0.179,-0.098c-0.219,-0.119 -0.43,-0.244 -0.63,-0.377c-0.2,-0.134 -0.379,-0.28 -0.537,-0.436c-0.16,-0.158 -0.296,-0.327 -0.404,-0.504c-0.111,-0.179 -0.186,-0.373 -0.225,-0.585c-0.027,-0.107 -0.042,-0.205 -0.046,-0.298c-0.004,-0.094 -0.004,-0.192 -0.004,-0.298c0,-0.311 0.052,-0.581 0.154,-0.813c0.104,-0.231 0.246,-0.429 0.425,-0.591c0.179,-0.163 0.394,-0.292 0.637,-0.388c0.246,-0.096 0.517,-0.16 0.809,-0.192l0,-0.279c0,-0.131 0.031,-0.243 0.091,-0.335c0.061,-0.094 0.169,-0.138 0.33,-0.138l0.041,0c0.346,0 0.536,0.169 0.569,0.505l-0.01,0.264c0.187,0.033 0.377,0.083 0.573,0.152c0.197,0.069 0.416,0.159 0.664,0.263l-0.029,-0.019c0.112,0.04 0.2,0.087 0.265,0.148c0.064,0.06 0.102,0.156 0.114,0.287l0,0.061c0,0.048 -0.012,0.106 -0.035,0.179c-0.023,0.073 -0.059,0.142 -0.104,0.208c-0.048,0.067 -0.1,0.125 -0.161,0.173c-0.06,0.05 -0.125,0.075 -0.2,0.075c-0.06,0 -0.114,-0.006 -0.164,-0.014c-0.05,-0.009 -0.109,-0.04 -0.173,-0.084l0,0.009l-0.111,-0.061c-0.194,-0.1 -0.406,-0.179 -0.637,-0.237l0,2.706l0.039,0.019c0.538,0.271 0.954,0.571 1.248,0.902c0.294,0.329 0.486,0.673 0.579,1.031c0.04,0.15 0.067,0.292 0.086,0.417c0.016,0.125 0.025,0.254 0.025,0.385c0,0.304 -0.05,0.577 -0.15,0.823c-0.1,0.244 -0.238,0.456 -0.409,0.64c-0.172,0.181 -0.379,0.329 -0.622,0.445c-0.244,0.117 -0.509,0.194 -0.794,0.234l0,0.714c0,0.132 -0.025,0.244 -0.081,0.336c-0.053,0.094 -0.163,0.137 -0.33,0.137l-0.06,0c-0.167,0 -0.3,-0.046 -0.4,-0.133c-0.1,-0.088 -0.15,-0.221 -0.15,-0.39l0,-0.664c-0.358,-0.04 -0.669,-0.119 -0.927,-0.238c-0.261,-0.118 -0.525,-0.266 -0.798,-0.446c-0.073,-0.058 -0.123,-0.116 -0.15,-0.168c-0.027,-0.052 -0.056,-0.125 -0.09,-0.219l0,-0.06c0,-0.059 0.017,-0.128 0.055,-0.203c0.037,-0.077 0.081,-0.147 0.135,-0.218c0.054,-0.069 0.11,-0.129 0.169,-0.179c0.06,-0.05 0.116,-0.073 0.168,-0.073c0.073,0 0.14,0.02 0.196,0.064c0.057,0.044 0.111,0.086 0.165,0.134l0.004,0.004c0.013,0.006 0.021,0.008 0.029,0.008l-0.029,-0.008Zm0.51,-4.215c0.157,0.144 0.342,0.273 0.555,0.386l0,-2.171c-0.252,0.054 -0.465,0.156 -0.634,0.308c-0.168,0.152 -0.254,0.358 -0.254,0.615c0,0.039 0.002,0.083 0.004,0.129c0.004,0.046 0.011,0.104 0.027,0.169c0.048,0.231 0.146,0.418 0.302,0.564Zm2.053,2.613c-0.134,-0.163 -0.294,-0.302 -0.48,-0.421l0,2.469c0.232,-0.094 0.427,-0.236 0.584,-0.428c0.156,-0.191 0.235,-0.416 0.235,-0.672c0,-0.073 -0.006,-0.138 -0.019,-0.198c-0.012,-0.061 -0.025,-0.123 -0.039,-0.19c-0.056,-0.212 -0.148,-0.398 -0.281,-0.56Z" style="fill:#472b29;fill-rule:nonzero;"/><path d="M220.525,226.419c0.013,0 0.04,0.012 0.081,0.039l-0.018,-0.01c0.193,0.131 0.366,0.237 0.518,0.312c0.154,0.075 0.317,0.13 0.488,0.165l0,-3.083l-0.179,-0.1c-0.219,-0.119 -0.43,-0.244 -0.63,-0.377c-0.2,-0.134 -0.379,-0.28 -0.537,-0.436c-0.16,-0.158 -0.296,-0.327 -0.404,-0.504c-0.111,-0.179 -0.186,-0.373 -0.225,-0.585c-0.027,-0.107 -0.042,-0.205 -0.046,-0.298c-0.002,-0.094 -0.004,-0.192 -0.004,-0.298c0,-0.311 0.052,-0.581 0.154,-0.813c0.104,-0.231 0.246,-0.429 0.425,-0.591c0.179,-0.163 0.394,-0.292 0.637,-0.388c0.246,-0.096 0.517,-0.16 0.809,-0.192l0,-0.279c0,-0.131 0.031,-0.243 0.091,-0.335c0.061,-0.094 0.169,-0.138 0.33,-0.138l0.041,0c0.346,0 0.536,0.169 0.569,0.505l-0.008,0.266c0.187,0.034 0.377,0.084 0.573,0.152c0.198,0.069 0.416,0.159 0.664,0.263l-0.029,-0.019c0.113,0.04 0.2,0.088 0.265,0.148c0.062,0.06 0.102,0.156 0.114,0.287l0,0.061c0,0.048 -0.012,0.106 -0.035,0.179c-0.023,0.073 -0.059,0.142 -0.104,0.208c-0.048,0.067 -0.1,0.125 -0.161,0.173c-0.06,0.05 -0.125,0.075 -0.2,0.075c-0.06,0 -0.114,-0.006 -0.164,-0.014c-0.05,-0.009 -0.109,-0.04 -0.173,-0.084l0,0.009l-0.111,-0.061c-0.193,-0.1 -0.406,-0.179 -0.637,-0.237l0,2.706l0.039,0.019c0.538,0.271 0.955,0.571 1.248,0.902c0.294,0.331 0.486,0.673 0.579,1.031c0.04,0.15 0.067,0.292 0.086,0.417c0.014,0.125 0.027,0.254 0.027,0.385c0,0.304 -0.05,0.577 -0.15,0.823c-0.1,0.244 -0.238,0.456 -0.408,0.64c-0.173,0.181 -0.382,0.329 -0.623,0.446c-0.244,0.116 -0.509,0.193 -0.794,0.233l0,0.714c0,0.132 -0.027,0.244 -0.081,0.336c-0.052,0.094 -0.163,0.137 -0.329,0.137l-0.067,0c-0.167,0 -0.3,-0.045 -0.4,-0.133c-0.1,-0.09 -0.15,-0.221 -0.15,-0.39l0,-0.664c-0.358,-0.04 -0.669,-0.119 -0.927,-0.238c-0.261,-0.118 -0.525,-0.266 -0.798,-0.445c-0.073,-0.059 -0.123,-0.117 -0.15,-0.169c-0.027,-0.052 -0.056,-0.125 -0.09,-0.219l0,-0.06c0,-0.059 0.017,-0.127 0.054,-0.202c0.038,-0.078 0.082,-0.148 0.136,-0.219c0.054,-0.071 0.11,-0.129 0.169,-0.179c0.06,-0.05 0.116,-0.073 0.168,-0.073c0.073,0 0.14,0.021 0.196,0.064c0.056,0.044 0.111,0.086 0.165,0.134l0.006,0.004c0.013,0.006 0.021,0.008 0.029,0.008l-0.029,-0.008Zm0.513,-4.217c0.156,0.144 0.341,0.273 0.554,0.386l0,-2.171c-0.252,0.054 -0.465,0.156 -0.634,0.308c-0.168,0.152 -0.254,0.358 -0.254,0.615c0,0.039 0.002,0.083 0.004,0.129c0.002,0.046 0.011,0.104 0.027,0.169c0.046,0.233 0.146,0.42 0.303,0.564Zm2.052,2.615c-0.134,-0.163 -0.294,-0.302 -0.48,-0.421l0,2.469c0.232,-0.094 0.428,-0.236 0.584,-0.427c0.156,-0.192 0.235,-0.417 0.235,-0.673c0,-0.073 -0.006,-0.138 -0.019,-0.198c-0.012,-0.061 -0.027,-0.123 -0.039,-0.19c-0.056,-0.212 -0.15,-0.4 -0.281,-0.56Z" style="fill:#472b29;fill-rule:nonzero;"/></g></g></g></svg>